<svg height="14" viewBox="0 0 16 14" width="16" xmlns="http://www.w3.org/2000/svg"><path d="m207.925078 24.6131492c-.050443-.1244804-.122645-.2358043-.214629-.3299237l-5.851361-5.987205c-.385739-.394694-1.011823-.394694-1.398551 0-.385738.3957061-.385738 1.0363249 0 1.4310189l4.164001 4.2606716h-11.635464c-.545969 0-.989074.4523801-.989074 1.012036s.443105 1.012036.989074 1.012036h4.703892 6.931572l-4.164001 4.2606715c-.385738.3957061-.385738 1.0363249 0 1.431019.19287.197347.446073.2965265.699276.2965265s.506405-.0991795.699275-.2965265l5.851361-5.987205c.091984-.0941194.164186-.2054433.214629-.3299238.099896-.2469367.099896-.5262587 0-.7731955z" fill="#fff" fill-rule="evenodd" transform="translate(-192 -18)"/></svg>