<svg viewBox="0 0 16.66 13" xmlns="http://www.w3.org/2000/svg"><path d="m16.66 3.51a5.3 5.3 0 0 1 -1.61-1.51 3.73 3.73 0 0 1 -1.74 1.73 6.31 6.31 0 0 0 -2-2.73 4.8 4.8 0 0 0 -5.91 0 6.3 6.3 0 0 0 -2 2.73 3.73 3.73 0 0 1 -1.79-1.73 5.3 5.3 0 0 1 -1.61 1.51 3.72 3.72 0 0 0 2.92 1.81 7.68 7.68 0 0 0 -.09 1.18c0 3.59 2.46 6.5 5.51 6.5s5.5-2.91 5.5-6.5a7.68 7.68 0 0 0 -.09-1.18 3.72 3.72 0 0 0 2.91-1.81zm-8.33 8c-2 0-3.65-1.93-3.65-4.31a4.8 4.8 0 0 1 .8-2.69c.71 1.49 2.07 2.66 2.85 2.66s2.19-1.17 2.87-2.59a4.81 4.81 0 0 1 .8 2.67c0 2.38-1.65 4.31-3.67 4.31z" fill="#e20000"/></svg>