<svg height="59" width="181" xmlns="http://www.w3.org/2000/svg" xmlns:xlink="http://www.w3.org/1999/xlink"><defs><rect id="a" height="33" rx="3" width="33"/><filter id="b" height="218.2%" width="218.2%" x="-59.1%" y="-59.1%"><feOffset in="SourceAlpha" result="shadowOffsetOuter1"/><feGaussianBlur in="shadowOffsetOuter1" result="shadowBlurOuter1" stdDeviation="6.5"/><feColorMatrix in="shadowBlurOuter1" values="0 0 0 0 0.0211687184 0 0 0 0 0.882633342 0 0 0 0 1 0 0 0 0.310943161 0"/></filter><mask id="c" fill="#fff"><path d="m0 22.915v-22.803h16.93v22.803z" fill="#fff" fill-rule="evenodd"/></mask></defs><g fill="none" fill-rule="evenodd"><path d="m54 22.969h5.473c1.308 0 2.464.246 3.468.739s1.785 1.187 2.341 2.082c.557.895.835 1.937.835 3.126 0 1.19-.278 2.232-.835 3.127-.556.895-1.337 1.589-2.34 2.082-1.005.493-2.16.74-3.469.74h-5.473v-11.897zm5.336 9.635c1.204 0 2.165-.331 2.882-.994.718-.663 1.076-1.56 1.076-2.694 0-1.133-.358-2.03-1.076-2.693-.717-.663-1.678-.994-2.882-.994h-2.548v7.375zm13.097 2.396c-.975 0-1.85-.201-2.624-.603a4.52 4.52 0 0 1 -1.816-1.674c-.436-.714-.654-1.524-.654-2.43 0-.907.218-1.717.654-2.43a4.52 4.52 0 0 1 1.816-1.674c.774-.402 1.65-.603 2.624-.603.976 0 1.848.2 2.617.603.768.402 1.37.96 1.807 1.674.436.713.654 1.523.654 2.43 0 .906-.218 1.716-.654 2.43a4.533 4.533 0 0 1 -1.807 1.674c-.77.402-1.641.603-2.617.603zm0-2.175c.689 0 1.254-.23 1.696-.688.441-.46.662-1.074.662-1.844s-.22-1.385-.662-1.844-1.007-.688-1.696-.688c-.688 0-1.256.23-1.704.688-.447.459-.67 1.073-.67 1.844 0 .77.223 1.385.67 1.844.448.458 1.016.688 1.704.688zm12.84 1.597a2.777 2.777 0 0 1 -.972.434 4.976 4.976 0 0 1 -1.214.144c-1.101 0-1.953-.278-2.556-.833-.602-.555-.903-1.37-.903-2.447v-3.755h-1.429v-2.04h1.429v-2.225h2.685v2.226h2.306v2.04h-2.306v3.721c0 .385.1.683.301.892.2.21.485.315.852.315.424 0 .786-.113 1.084-.34l.723 1.87zm5.25-8.836c1.434 0 2.535.337 3.304 1.01.769.675 1.153 1.692 1.153 3.051v5.217h-2.513v-1.139c-.504.85-1.445 1.275-2.822 1.275-.712 0-1.328-.119-1.85-.357s-.921-.566-1.197-.985a2.541 2.541 0 0 1 -.413-1.428c0-.85.324-1.518.973-2.005.648-.487 1.65-.73 3.003-.73h2.134c0-.579-.177-1.023-.533-1.335-.356-.311-.89-.467-1.6-.467-.494 0-.979.076-1.455.23-.476.152-.88.359-1.214.62l-.963-1.853c.504-.351 1.11-.623 1.815-.815a8.232 8.232 0 0 1 2.178-.29zm-.207 7.63c.459 0 .866-.105 1.222-.315s.608-.518.757-.926v-.934h-1.841c-1.102 0-1.653.356-1.653 1.07 0 .34.135.609.405.807.27.199.64.298 1.11.298zm20.396-.595v2.243h-9.105v-1.784l4.647-4.334c.493-.464.826-.863.998-1.198.172-.334.258-.665.258-.994 0-.476-.163-.84-.49-1.096-.327-.255-.806-.382-1.437-.382-.528 0-1.004.099-1.429.297s-.78.496-1.067.892l-2.031-1.291c.47-.691 1.119-1.232 1.945-1.623.826-.39 1.773-.586 2.84-.586.895 0 1.678.144 2.35.433.67.289 1.192.697 1.565 1.224.373.526.56 1.147.56 1.86 0 .646-.138 1.252-.413 1.819-.276.566-.81 1.212-1.601 1.937l-2.771 2.583h5.18zm11.617-9.652c1.56 0 2.789.368 3.684 1.104.895.737 1.342 1.75 1.342 3.042s-.447 2.305-1.342 3.042c-.895.736-2.123 1.104-3.684 1.104h-2.977v3.603h-1.721v-11.894h4.698zm-.051 6.814c1.09 0 1.922-.23 2.495-.688.574-.46.86-1.119.86-1.98s-.286-1.52-.86-1.98c-.573-.459-1.405-.688-2.495-.688h-2.926v5.336zm7.211-3.925h1.653v9.006h-1.653zm.826-1.734a1.11 1.11 0 0 1 -.8-.306.997.997 0 0 1 -.318-.747c0-.295.106-.547.318-.757s.48-.314.8-.314c.322 0 .588.1.8.297a.97.97 0 0 1 .32.74c0 .305-.107.563-.32.773-.212.21-.478.314-.8.314zm7.952 10.842c-.93 0-1.758-.198-2.487-.595a4.389 4.389 0 0 1 -1.713-1.64c-.413-.696-.62-1.487-.62-2.37 0-.884.207-1.674.62-2.37a4.329 4.329 0 0 1 1.713-1.632c.729-.391 1.558-.586 2.487-.586.826 0 1.563.164 2.212.492.648.329 1.15.805 1.506 1.428l-1.257.799a2.794 2.794 0 0 0 -1.067-.97 3.076 3.076 0 0 0 -1.411-.322c-.597 0-1.133.13-1.61.39a2.8 2.8 0 0 0 -1.118 1.114c-.27.481-.405 1.034-.405 1.657 0 .634.135 1.192.405 1.674.27.481.642.852 1.119 1.113a3.3 3.3 0 0 0 1.609.39c.516 0 .987-.107 1.411-.322.425-.216.78-.538 1.067-.969l1.257.782a3.589 3.589 0 0 1 -1.506 1.436c-.649.334-1.386.501-2.212.501zm9.277-4.3-1.893 1.734v2.464h-1.653v-12.61h1.653v8.09l4.974-4.486h1.996l-3.838 3.721 4.217 5.285h-2.03l-3.426-4.197z" fill="#fff"/><path d="m154 17.05h2.464c.64 0 1.205.126 1.695.376s.87.598 1.14 1.045c.272.446.407.956.407 1.529a2.89 2.89 0 0 1 -.406 1.53 2.787 2.787 0 0 1 -1.141 1.044c-.49.25-1.055.375-1.695.375h-2.464v-5.898zm2.43 5.36c.53 0 .994-.102 1.391-.307.398-.206.706-.49.925-.852.22-.362.329-.78.329-1.251 0-.472-.11-.889-.329-1.251a2.269 2.269 0 0 0 -.925-.852c-.397-.205-.861-.307-1.392-.307h-1.79v4.82h1.79zm8.99 0v.54h-4.279v-5.9h4.15v.54h-3.51v2.098h3.13v.531h-3.13v2.191h3.64zm7.79-5.36v5.9h-.613v-4.72l-2.378 3.97h-.303l-2.377-3.944v4.693h-.614v-5.898h.527l2.629 4.373 2.602-4.373h.527zm4.617 5.95c-.6 0-1.143-.13-1.63-.392a2.904 2.904 0 0 1 -1.14-1.074 2.917 2.917 0 0 1 -.411-1.534c0-.567.136-1.079.41-1.534a2.904 2.904 0 0 1 1.141-1.074 3.392 3.392 0 0 1 1.63-.392c.6 0 1.14.13 1.621.388a2.912 2.912 0 0 1 1.552 2.612c0 .567-.138 1.08-.415 1.538a2.91 2.91 0 0 1 -1.137 1.074 3.371 3.371 0 0 1 -1.62.388zm0-.556c.478 0 .91-.106 1.297-.316.386-.21.689-.503.908-.877.219-.373.328-.79.328-1.251 0-.46-.11-.878-.328-1.251a2.318 2.318 0 0 0 -.908-.877 2.663 2.663 0 0 0 -1.297-.316c-.478 0-.912.106-1.301.316-.39.21-.695.503-.916.877a2.4 2.4 0 0 0 -.333 1.251c0 .46.11.878.333 1.251.221.374.527.666.916.877.389.21.823.316 1.301.316z" fill="#ccc"/><g transform="translate(13 13)"><use fill="#000" filter="url(#b)" xlink:href="#a"/><use fill="#2095ff" xlink:href="#a"/></g><path d="m8.582 11.741c-1.214 1.598-2.714 1.842-2.714 1.693 0-.346.551-1.295 2.223-1.985a8.22 8.22 0 0 1 .891-.307 5.854 5.854 0 0 1 -.4.6m6.07-3.743h-.026c-.327 0-.647.013-.961.035.017-.193.03-.385.036-.575.14-3.418-1.153-6.672-3.165-6.672-2.366 0-4.251 2.187-5.458 4.619.02-.298.033-.57.033-.809-.001-3.62-1.345-4.486-2.744-4.486-.742 0-2.367.414-2.367 1.062 0 .649.646.504.968 3.362.303 2.685-.484 14.078-.484 15.573 0 3.459 4.178 3.513 3.075 1.297-.694-1.395.1-6.261.785-10.578 1.276-4.434 5.757-11.767 5.757-4.47a12.612 12.612 0 0 1 -.153 1.964 8.525 8.525 0 0 1 -.112.58c-.318.125-.624.261-.919.404-2.771 1.35-4.465 3.443-4.465 4.75 0 .64 1.027 1.156 2.585 1.156 3.03 0 4.889-1.717 5.85-3.965.082-.186.155-.378.222-.573.312.005.635.015.97.033l.035.002c1.6.086.246 1.896.824 1.896.745 0 4.246-4.588-.286-4.605" fill="#fff" mask="url(#c)" transform="translate(23 19)"/><path d="m35.468 31.085c-.85-.303-2.906-.544-3.94-.258.124-.186.438-.672.438-.672.908-.31 2.613-.49 4.131-.47 0 .152-.41 1.02-.629 1.4z" fill="#d3d3d3"/></g></svg>