<svg width="46" height="30" xmlns="http://www.w3.org/2000/svg"><g fill="#DDD" fill-rule="evenodd"><path d="M16.47 17.992h8.793c-1.313 4.056-5.213 6.998-9.823 6.998-5.684 0-10.293-4.475-10.293-9.995 0-5.521 4.608-9.997 10.293-9.997 2.864 0 5.454 1.135 7.319 2.966l3.486-3.679C23.46 1.635 19.648 0 15.44 0 6.914 0 0 6.713 0 14.994c0 8.282 6.912 14.994 15.44 14.994 7.47 0 14.01-5.15 15.441-11.995v-4.665h-14.41v4.665zM41.974 13.29V9.334h-3.441v3.954h-4.014v3.388h4.014v3.955h3.44v-3.955h4.015V13.29z"/></g></svg>
