<svg width="33" height="32" xmlns="http://www.w3.org/2000/svg"><path d="M8.465.59L.675.75c-.42 1.555-.002.768 0 2.392l-.002 2.94C.609 6.93.386 7.362.387 8.497c0 .383-.085 1.26.099 1.559.324.53.316.979.453 1.745.121.68.253.609-.053 1.122l-.142 1.3.666.653.004 1.142c-.396.364.048.105-.79.711l.075 3.449.825.6-.173 2.941c-.87.626-.683 1.384-.655 2.164l.106 2.932-.19 1.502c1.949.492 1.522.34 3.75.34 1.97 0 1.716.02 3.662-.217l.05.332c.302-.02.614-.036.911-.065.829-.08.497-.177.783-.28.206-.075 2.426.442 2.786.52.2-.224.098-.133.376-.314.15.319.792 1.049 1.054 1.366l.804-.757 1.406.548.412-.348c.16.19.259.43.545.468.418.054.486-.64 1.407-.657l5.342-.179c.069-.066.11-.105.183-.178l.273-.223c.351.213.5.417.982.385 1.473-.098.702.358 2.604.255.328-.018.246-.099.535-.2l.618-.096c-.135-.361-.22-.31-.487-.58l3.384.687c-.046-3.996-.037-8.87.013-12.981l-.91.068c.034-.267.43-.167.461-.703.04-.676.032-2.991-.066-3.486-.05-.253-.692-.99-.863-1.22.204-.556.224-.519.602-.973-.032-.299-.101-.378-.23-.718l.992-.326c.011-.573.076-2.868.038-3.594l-.401-3.92.306-.98.014-1.007c-.857-.495-.745-.55-1.34-.546-.533.004-1.252-.025-1.764-.142-.657-.151-.48-.258-1.2.484l-.328-.714C26.288.29 22.991 0 22.206 0c-1.001 0-.856.076-1.195 1.217l-1.439.149-.191-.624-1.304-.015.138-.153c.255-.244.166-.145.365-.575h-5.243c-.173.322-.49.567-.864.691-.522.174-.263-.106-.593.19-.247.223-.29.209-.68.2a73.88 73.88 0 0 1-1.563-.048c-.238-.01-.5.015-.729-.04C8.555.91 8.658.818 8.465.59M3.913 6.212c.511-.288.783-.07 1.645-.695.23-.168.762-.151 1.085-.107.334.046 1.104.69 1.457.907.204.126 1.123.83 1.272 1.073l.454.735c.625.031.515-.005 1.304.574l7.55 4.998c1.624 1.131 3.519 2.288 5.151 3.428l4.654 3.055c-.134.29-.291 1.29-.38 1.69-.402 1.834-.91 2.612-1.73 4.377-1.18.046-2.11.037-3.262.019-.373-.006-.281.072-.485-.126-.675-.656-1.902-2.095-2.584-2.759-.236-.23-.448-.444-.681-.694-1.886-2.016-.993-1.408-1.363-1.91l-3.795-3.6c-.871-.85-1.656-1.764-2.557-2.722-.232-.245-.348-.477-.589-.7l-.067-.06c-.064-.064-.04-.038-.1-.107L9.79 12.331c-.194-.18-.176-.174-.318-.336l-.992-1.027c-.218-.229-.388-.466-.595-.714l-.948-1.008c-.14-.144-.243-.187-.382-.332-.45-.47-.83-.921-1.285-1.392-.365-.376-1.252-1.1-1.357-1.31m19.987-.78c.5.175 1.715.87 2.012 1.245.25.315.178.344.085.797l-.493 3.875c-.684.025-.486-.056-.91-.342-.711-.478-3.15-2.285-3.933-2.919l-1.506-1.214c.11-.104-.039-.05.212-.115l2.23-.504c1.16-.292 1.34-.369 2.303-.823M6.413 19.111c.31.194.51.386.811.63l2.434 2.263c.508.485 1.808 1.802 2.307 2.385.341.398.49.441.74.834-.092.034-1.229.296-1.89.524-1.377.475-2.631 1.236-3.83.829-.18-.061-.996-.843-1.37-1.108l-.687-.483c-.73-.511-.94-.16.03-2.425.254-.592.468-1.126.71-1.707.21-.507.5-1.327.745-1.742" fill="#DDD" fill-rule="evenodd"/></svg>
