<svg width="27" height="36" xmlns="http://www.w3.org/2000/svg"><path d="M23.038 12.453c-.515 0-1.02.022-1.517.058.502-5.711-1.578-11.443-4.925-11.443-3.727 0-6.697 3.45-8.599 7.289.033-.47.053-.9.053-1.275C8.05 1.365 5.932 0 3.728 0 2.56 0 0 .652 0 1.676s1.017.795 1.525 5.308c.478 4.239-.762 22.224-.762 24.585 0 5.46 6.58 5.546 4.843 2.047-1.094-2.203.16-9.888 1.237-16.704 2.01-7 9.066-18.57 9.066-7.052-.005 1.532-.16 2.863-.417 4.02-5.212 2.056-8.48 5.851-8.48 8.13 0 .636.638 1.193 1.72 1.52l.002.002.027.006a6.232 6.232 0 0 0 .542.133c.16.033.326.062.5.086a8.665 8.665 0 0 0 .546.053l.145.01c.191.01.386.018.59.018 4.19 0 6.957-2.091 8.596-5.003-1.383-.454-4.508-.805-6.205-.418-1.18 1.531-2.519 2.257-3.37 2.533-.04.013-.081.027-.12.038l-.069.018c-.413.113-.672.104-.672.026 0-.963 2.691-4.872 12.987-4.305 2.517.139.386 2.996 1.298 2.996 1.176 0 6.706-7.27-.49-7.27" fill="#DDD" fill-rule="evenodd"/></svg>
