<svg width="40" height="36" xmlns="http://www.w3.org/2000/svg"><g fill="#DDD" fill-rule="evenodd"><path d="M36.639 18.627c-.734-1.718-1.917-3.282-3.444-4.613a2.805 2.805 0 0 1 1.782-.639c1.575 0 2.855 1.302 2.855 2.9 0 .97-.472 1.826-1.193 2.352M31.071 30.35C28.139 32.573 24.207 33.8 20 33.8c-4.208 0-8.139-1.226-11.07-3.45-2.743-2.08-4.253-4.788-4.253-7.622 0-2.834 1.51-5.54 4.253-7.622 2.931-2.225 6.862-3.45 11.07-3.45 4.207 0 8.139 1.225 11.071 3.45 2.742 2.081 4.253 4.788 4.253 7.622 0 2.834-1.511 5.541-4.253 7.622M2.167 16.275c0-1.598 1.282-2.9 2.856-2.9a2.8 2.8 0 0 1 1.782.64c-1.528 1.331-2.71 2.895-3.445 4.613a2.907 2.907 0 0 1-1.193-2.353M32.184 2.201c1.117 0 2.026.923 2.026 2.058 0 1.134-.909 2.056-2.026 2.056-1.117 0-2.025-.922-2.025-2.056 0-1.135.908-2.058 2.025-2.058M40 16.275c0-2.817-2.249-5.1-5.023-5.1a4.96 4.96 0 0 0-3.554 1.501c-2.809-1.84-6.398-3.013-10.339-3.195a5.592 5.592 0 0 1 2.057-4.349 5.41 5.41 0 0 1 4.634-1.095l.224.05c-.002.058-.008.113-.008.172 0 2.351 1.877 4.258 4.193 4.258s4.193-1.907 4.193-4.258C36.377 1.906 34.5 0 32.184 0c-1.489 0-2.794.79-3.537 1.98l-.402-.092a7.543 7.543 0 0 0-6.46 1.527 7.797 7.797 0 0 0-2.869 6.066c-3.94.182-7.528 1.354-10.337 3.193a4.967 4.967 0 0 0-3.556-1.5C2.249 11.174 0 13.458 0 16.275a5.108 5.108 0 0 0 2.695 4.517 10.187 10.187 0 0 0-.186 1.935C2.509 30.058 10.34 36 20 36s17.491-5.942 17.491-13.273c0-.657-.064-1.302-.185-1.934A5.11 5.11 0 0 0 40 16.275"/><path d="M13.611 21.95c1.263 0 2.287-1.04 2.287-2.322s-1.024-2.323-2.287-2.323-2.287 1.04-2.287 2.323c0 1.282 1.024 2.323 2.287 2.323M26.388 17.305c-1.263 0-2.287 1.04-2.287 2.322 0 1.283 1.024 2.324 2.287 2.324s2.287-1.041 2.287-2.324c0-1.282-1.024-2.322-2.287-2.322M25.42 25.272a8.643 8.643 0 0 1-5.885 2.313c-2.451 0-4.722-1.002-6.395-2.825a1.072 1.072 0 0 0-1.532-.053 1.112 1.112 0 0 0-.053 1.554 10.871 10.871 0 0 0 7.98 3.526 10.79 10.79 0 0 0 7.345-2.888 1.113 1.113 0 0 0 .07-1.555 1.073 1.073 0 0 0-1.53-.072"/></g></svg>
